# xmcd
#
# Track frame offsets:
#	150
#	25170
#	51900
#	81033
#	99638
#	121940
#	144765
#	156175
#	171313
#	193545
#	231905
#
# Disc length: 3422 seconds
#
# Revision: 1
# Processed by: cddbd v1.5.1PL0 Copyright (c) Steve Scherf et al.
# Submitted via: CDex 1.50Beta5
#
DISCID=890d5c0b
DTITLE=Various Artist - ジャズ.サックス名演集
DYEAR=1900
DGENRE=
TTITLE0=ソニー.ロリンズ/「ジャスト.イン.タイム」
TTITLE1=アート.ペッパー/「スター.アイズ」
TTITLE2=ソニー.クリス/「ラヴ.フォー.セール」
TTITLE3=ソニー.ステイット/「ナンシー」
TTITLE4=スタン.ゲッツ/「ハッシャバイ」
TTITLE5=キャノンボール.アダレイ/オン・ア・スロー・ボート・トゥ・チャイナ
TTITLE6=ジャッキー.マクリーン/「アヴァロン」
TTITLE7=ズート.シムズ/「ホワッツ.ニュー」
TTITLE8=ジェリー.マリガン&セロニアス.モンク/オールド・フォークス
TTITLE9=ジョニー.グリフィン/「メディティション」
TTITLE10=ジョン.コルトレーン/「アイ.ラヴ.ユー」
EXTD=
EXTT0=
EXTT1=
EXTT2=
EXTT3=
EXTT4=
EXTT5=
EXTT6=
EXTT7=
EXTT8=
EXTT9=
EXTT10=
PLAYORDER=
